<svg width="1231" height="140" viewBox="0 0 1231 140" fill="none" xmlns="http://www.w3.org/2000/svg">
<path d="M635.937 3.24043C610.273 2.97446 590.071 4.14999 558.79 3.98383C527.51 3.81768 522.825 3.19412 487.001 3.33442C451.179 3.47469 415.336 3.0482 399.385 3.30439C383.436 3.56066 381.752 2.78587 359.102 2.95795C336.453 3.13001 322.725 3.02888 302.917 2.77705C283.107 2.52521 222.249 2.31021 200.119 2.61958C177.989 2.92894 152.748 2.39215 137.569 2.26484C132.841 2.22518 129.12 2.17091 126.267 2.11445C125.059 2.09051 124.5 2.04042 124.5 1.99099C124.5 1.99095 124.5 1.99092 124.5 1.99089C124.501 1.92933 125.366 1.86881 126.919 1.86103C134.458 1.82328 145.726 1.72367 159.037 1.50044C183.856 1.08419 186.568 1.54416 220.083 1.33027C253.598 1.11638 273.734 0.688765 313.167 0.96528C352.601 1.24177 361.658 0.0846691 417.323 0.740426C472.986 1.39614 478.844 0.186013 534.315 0.0250943C589.785 -0.135812 659.806 0.531875 693.244 0.47651C705.243 0.456644 718.718 0.425757 733.256 0.401694L733.923 0.403991L734.386 0.869827C752.785 19.2083 773.567 39.9604 794.987 61.5246C817.611 84.3022 844.024 110.502 870.147 136.598L869.006 136.123C886.601 136.174 904.134 136.255 921.021 136.406C973.345 136.872 1047.32 137.489 1081.49 137.849C1115.67 138.208 1124 138.292 1156.89 138.258C1175.8 138.239 1201.85 138.41 1223.85 138.797C1234.92 138.993 1232.41 139.202 1221.27 139.268C1204.97 139.364 1191.59 139.216 1183.19 139.459C1166.41 139.946 1159.28 140.131 1138.1 139.74C1116.91 139.349 1106.93 140.036 1094.58 139.91C1082.23 139.784 1082.44 139.359 1019.65 139.469C956.859 139.579 922.437 139.543 898.659 139.539C891.03 139.538 880.736 139.482 868.994 139.405L868.315 139.405L867.825 138.919C850.305 121.292 828.242 99.0287 809.568 80.4836C790.48 61.526 757.837 28.84 732.094 3.16154L733.256 3.64267C717.24 3.66277 703.133 3.69765 693.422 3.76435C661.665 3.98246 661.6 3.50639 635.937 3.24043ZM347.481 139.24C330.045 138.974 316.318 140.15 295.066 139.984C273.813 139.818 270.63 139.194 246.291 139.334C221.952 139.475 197.6 139.048 186.763 139.304C175.926 139.561 174.783 138.786 159.393 138.958C144.005 139.13 134.679 139.029 121.22 138.777C107.761 138.525 66.4125 138.31 51.377 138.62C36.3413 138.929 19.1925 138.392 8.87926 138.265C5.66693 138.225 3.13872 138.171 1.20063 138.114C0.379547 138.091 0.000281175 138.04 0 137.991C0 137.991 0 137.991 0 137.991C0.000218153 137.929 0.588344 137.869 1.64361 137.861C6.76593 137.823 14.4212 137.724 23.4651 137.5C40.3278 137.084 42.1707 137.544 64.9412 137.33C87.7117 137.116 101.392 136.689 128.185 136.965C154.977 137.242 161.13 136.085 198.95 136.74C236.769 137.396 240.749 136.186 278.437 136.025C316.125 135.864 363.698 136.532 386.417 136.477C409.136 136.421 439.649 136.28 471.856 136.44C504.062 136.6 543.821 136.196 579.372 136.481C614.922 136.766 665.184 137.126 688.404 137.367C708.734 137.579 715.603 137.647 732 137.561L731.69 137.69C733.328 136.034 735.101 134.24 737.054 132.261C746.078 123.117 758.649 110.659 769.439 100.309C774.87 95.1002 773.819 96.46 768.538 101.888C760.816 109.826 754.317 116.182 750.475 120.409C743.791 127.764 740.441 131.425 732.82 138.82L732.486 139.157L732 139.159C730.424 139.135 728.723 139.103 726.863 139.062C712.471 138.745 705.69 139.466 697.3 139.383C688.91 139.3 689.048 138.875 646.388 139.202C603.728 139.53 580.341 139.614 564.186 139.692C548.031 139.771 514.298 139.402 487.969 139.535C461.64 139.668 408.114 139.546 386.538 139.764C364.961 139.982 364.917 139.506 347.481 139.24ZM948.674 3.24043C941.745 2.97446 936.291 4.14999 927.846 3.98383C919.402 3.81768 918.137 3.19412 908.466 3.33442C898.795 3.47469 889.119 3.0482 884.813 3.30439C880.507 3.56066 880.052 2.78587 873.937 2.95795C872.511 2.99809 871.216 3.02337 870 3.03532L870.732 2.73208C867.935 5.58507 865.644 7.72798 862.608 10.4906C858.649 14.0942 846.879 25.5597 842.873 30.0029C838.868 34.4461 833.67 38.8848 830.682 41.6925C829.751 42.567 829.003 43.239 828.418 43.7436C828.171 43.9573 828.029 44.0285 827.994 43.9936C827.994 43.9936 827.994 43.9936 827.994 43.9936C827.95 43.9499 828.073 43.7419 828.364 43.4399C829.776 41.9741 831.856 39.7527 834.24 37.0539C838.683 32.0216 839.526 31.8292 845.773 25.2801C852.019 18.7311 855.561 14.585 863.284 7.25275C865.783 4.87997 867.569 3.00829 869.217 1.21747L869.556 0.887668L870 0.893329C875.083 0.682714 879.491 0.296883 889.655 0.740426C904.682 1.39614 906.264 0.186013 921.239 0.0250943C936.214 -0.135812 955.117 0.531875 964.145 0.47651C973.172 0.421144 985.296 0.280184 998.093 0.439889C1010.89 0.599588 1026.69 0.19645 1040.81 0.481393C1054.94 0.766333 1074.91 1.12622 1084.14 1.36738C1093.36 1.60853 1095.61 1.66292 1104.49 1.51557C1109.6 1.43087 1116.63 1.51071 1122.57 1.82221C1125.56 1.97898 1124.88 2.19726 1121.87 2.3017C1117.47 2.45442 1113.86 2.3524 1111.59 2.62519C1107.06 3.17038 1105.14 3.37952 1099.42 3.0622C1093.7 2.74492 1091.01 3.466 1087.67 3.383C1084.34 3.29997 1084.39 2.87465 1067.44 3.20234C1050.49 3.53004 1041.2 3.61366 1034.78 3.69233C1028.36 3.771 1014.96 3.40187 1004.5 3.5351C994.034 3.66833 972.766 3.54623 964.192 3.76435C955.619 3.98246 955.602 3.50639 948.674 3.24043Z" fill="#A1A7B0"/>
</svg>
