<svg width="205" height="31" viewBox="0 0 205 31" fill="none" xmlns="http://www.w3.org/2000/svg">
<path d="M43.28 13.944C45.92 14.232 48.032 14.7 49.616 15.348C51.224 15.996 52.388 16.848 53.108 17.904C53.828 18.96 54.188 20.28 54.188 21.864C54.188 23.592 53.624 25.104 52.496 26.4C51.392 27.672 49.856 28.656 47.888 29.352C45.92 30.024 43.676 30.36 41.156 30.36C38.348 30.36 35.972 30.012 34.028 29.316C32.084 28.62 30.632 27.696 29.672 26.544C28.712 25.368 28.232 24.084 28.232 22.692C28.232 22.452 28.304 22.26 28.448 22.116C28.616 21.972 28.82 21.9 29.06 21.9H36.44C36.944 21.9 37.352 22.056 37.664 22.368C38.072 22.752 38.528 23.016 39.032 23.16C39.536 23.28 40.244 23.34 41.156 23.34C43.436 23.34 44.576 22.992 44.576 22.296C44.576 22.008 44.42 21.768 44.108 21.576C43.82 21.36 43.292 21.18 42.524 21.036C41.78 20.868 40.676 20.7 39.212 20.532C35.924 20.148 33.404 19.332 31.652 18.084C29.9 16.812 29.024 15.024 29.024 12.72C29.024 11.088 29.516 9.648 30.5 8.4C31.484 7.152 32.876 6.18 34.676 5.484C36.5 4.788 38.612 4.44 41.012 4.44C43.508 4.44 45.692 4.836 47.564 5.628C49.436 6.396 50.864 7.356 51.848 8.508C52.832 9.66 53.324 10.788 53.324 11.892C53.324 12.132 53.24 12.324 53.072 12.468C52.928 12.612 52.724 12.684 52.46 12.684H44.72C44.312 12.684 43.94 12.54 43.604 12.252C43.34 12.012 43.028 11.82 42.668 11.676C42.308 11.532 41.756 11.46 41.012 11.46C39.404 11.46 38.6 11.796 38.6 12.468C38.6 12.828 38.912 13.116 39.536 13.332C40.16 13.524 41.408 13.728 43.28 13.944ZM75.5579 4.8C77.8139 4.8 79.7819 5.184 81.4619 5.952C83.1419 6.72 84.4259 7.764 85.3139 9.084C86.2019 10.404 86.6459 11.88 86.6459 13.512C86.6459 16.2 85.8059 18.312 84.1259 19.848C82.4459 21.36 79.5899 22.116 75.5579 22.116H70.8059V29.028C70.8059 29.292 70.7099 29.52 70.5179 29.712C70.3259 29.904 70.0979 30 69.8339 30H62.0939C61.8299 30 61.6019 29.904 61.4099 29.712C61.2179 29.52 61.1219 29.292 61.1219 29.028V5.772C61.1219 5.508 61.2179 5.28 61.4099 5.088C61.6019 4.896 61.8299 4.8 62.0939 4.8H75.5579ZM75.4139 15.456C75.9899 15.456 76.4459 15.288 76.7819 14.952C77.1179 14.592 77.2859 14.124 77.2859 13.548C77.2859 12.948 77.1179 12.456 76.7819 12.072C76.4459 11.688 75.9899 11.496 75.4139 11.496H70.8419V15.456H75.4139ZM97.2879 28.776C96.9759 29.592 96.4359 30 95.6679 30H88.8639C88.6479 30 88.4559 29.928 88.2879 29.784C88.1439 29.616 88.0719 29.424 88.0719 29.208L88.1079 28.992L95.9559 5.988C96.0519 5.676 96.2319 5.4 96.4959 5.16C96.7599 4.92 97.1199 4.8 97.5759 4.8H107.584C108.04 4.8 108.4 4.92 108.664 5.16C108.928 5.4 109.108 5.676 109.204 5.988L117.052 28.992L117.088 29.208C117.088 29.424 117.004 29.616 116.836 29.784C116.692 29.928 116.512 30 116.296 30H109.492C108.724 30 108.184 29.592 107.872 28.776L106.972 26.256H98.1879L97.2879 28.776ZM102.58 11.748L100.024 19.236H105.136L102.58 11.748ZM129.746 20.28C129.746 21.264 130.07 22.02 130.718 22.548C131.39 23.076 132.29 23.34 133.418 23.34C134.426 23.34 135.17 23.172 135.65 22.836C136.13 22.5 136.538 21.996 136.874 21.324C137.186 20.7 137.606 20.388 138.134 20.388H145.91C146.126 20.388 146.306 20.472 146.45 20.64C146.618 20.784 146.702 20.964 146.702 21.18C146.702 22.644 146.21 24.084 145.226 25.5C144.242 26.892 142.742 28.056 140.726 28.992C138.734 29.904 136.298 30.36 133.418 30.36C130.85 30.36 128.558 29.976 126.542 29.208C124.55 28.416 122.966 27.216 121.79 25.608C120.614 23.976 120.026 21.948 120.026 19.524V15.276C120.026 12.852 120.614 10.836 121.79 9.228C122.966 7.596 124.55 6.396 126.542 5.628C128.558 4.836 130.85 4.44 133.418 4.44C136.298 4.44 138.734 4.908 140.726 5.844C142.742 6.756 144.242 7.92 145.226 9.336C146.21 10.728 146.702 12.156 146.702 13.62C146.702 13.836 146.618 14.028 146.45 14.196C146.306 14.34 146.126 14.412 145.91 14.412H138.134C137.606 14.412 137.186 14.1 136.874 13.476C136.538 12.804 136.13 12.3 135.65 11.964C135.17 11.628 134.426 11.46 133.418 11.46C132.29 11.46 131.39 11.724 130.718 12.252C130.07 12.78 129.746 13.536 129.746 14.52V20.28ZM175.308 22.98C175.572 22.98 175.8 23.076 175.992 23.268C176.184 23.46 176.28 23.688 176.28 23.952V29.028C176.28 29.292 176.184 29.52 175.992 29.712C175.8 29.904 175.572 30 175.308 30H152.556C152.292 30 152.064 29.904 151.872 29.712C151.68 29.52 151.584 29.292 151.584 29.028V5.772C151.584 5.508 151.68 5.28 151.872 5.088C152.064 4.896 152.292 4.8 152.556 4.8H174.948C175.212 4.8 175.44 4.896 175.632 5.088C175.824 5.28 175.92 5.508 175.92 5.772V10.848C175.92 11.112 175.824 11.34 175.632 11.532C175.44 11.724 175.212 11.82 174.948 11.82H160.944V14.088H172.968C173.232 14.088 173.46 14.184 173.652 14.376C173.844 14.568 173.94 14.796 173.94 15.06V19.74C173.94 20.004 173.844 20.232 173.652 20.424C173.46 20.616 173.232 20.712 172.968 20.712H160.944V22.98H175.308Z" fill="#56575A"/>
<line x1="2" y1="29" x2="178" y2="29" stroke="#56575A" stroke-width="2" stroke-linecap="round"/>
<line x1="1.86015" y1="27.8774" x2="203.877" y2="1.13985" stroke="#56575A" stroke-width="2" stroke-linecap="round"/>
</svg>
